<svg width="68" height="132" viewBox="0 0 68 132" fill="none" xmlns="http://www.w3.org/2000/svg">
<path d="M49.1813 27.7103C49.1813 27.7103 48.2511 23.5083 50.2688 20.9727C52.2865 18.437 58.8018 15.2974 57.5296 11.696C56.2574 8.09459 51.8651 7.6543 50.1046 9.40419C48.344 11.1541 49.3274 13.0372 48.139 13.272C46.9506 13.5068 40.0399 13.8365 40.5486 9.82981C41.0572 5.82312 45.4778 0.23363 51.3734 0.0439643C57.269 -0.145701 65.1098 -0.0644172 66.816 7.70285C68.5221 15.4701 65.6117 18.5206 61.4415 20.5256C57.2713 22.5306 59.2108 27.0849 57.7029 27.7103C56.195 28.3358 49.3625 29.0651 49.1813 27.7103Z" fill="#E7F0FC"/>
<path d="M47.6903 35.5239C48.1434 32.3108 50.0003 30.3047 52.8506 30.3047C55.701 30.3047 58.0733 31.787 58.7904 35.4979C59.3376 38.3271 55.6999 40.7442 52.8506 40.7442C50.0014 40.7442 47.2881 38.3767 47.6903 35.5239Z" fill="#E7F0FC"/>
<path d="M32.0041 79.1723C31.2839 79.0785 30.5927 78.829 29.9786 78.4413C27.9153 77.1529 26.5303 74.4326 25.4896 69.6204C25.0108 67.4046 23.6106 64.7342 23.597 64.707L28.2491 62.1741C28.3216 62.31 30.0073 65.5181 30.6462 68.4725C31.0072 70.1446 31.2005 59.5927 32.0902 58.5944C32.6354 57.9902 34.8346 58.9886 34.8346 58.9886C35.188 60.348 36.0626 63.1407 36.5791 67.3608C36.8918 69.915 37.0217 72.0114 36.9658 73.5898C36.9547 74.5164 36.8201 75.4373 36.5655 76.3282C35.9614 78.251 34.6851 78.8476 33.9812 79.0334C33.3372 79.2063 32.6659 79.2535 32.0041 79.1723Z" fill="#C97E67"/>
<path d="M32.6969 78.6497C32.4565 78.6539 32.2178 78.6081 31.996 78.5153C31.7891 78.4186 31.6743 78.2857 31.6743 78.1377C31.6743 77.8492 32.1274 77.6211 32.6999 77.6196C32.9431 77.6132 33.1847 77.6596 33.4083 77.7555C33.6152 77.8507 33.7285 77.9851 33.73 78.1331C33.73 78.4216 33.2769 78.6482 32.7029 78.6497H32.6969ZM32.7059 77.7601C32.1803 77.7601 31.8163 77.9594 31.8163 78.1377C31.8163 78.2253 31.9039 78.3174 32.058 78.3884C32.2616 78.4735 32.4808 78.5151 32.7014 78.5107C33.2255 78.5107 33.591 78.3098 33.591 78.1331C33.591 78.044 33.5019 77.9519 33.3494 77.8824C33.1469 77.7971 32.9287 77.7554 32.709 77.7601H32.7059Z" fill="#B2604D"/>
<path d="M30.1058 73.8843C30.089 73.8844 30.0728 73.8783 30.0602 73.8671C30.0477 73.856 30.0397 73.8406 30.0378 73.8239C30.0378 73.7937 29.6799 70.8468 30.7583 68.5374C30.7661 68.5208 30.7802 68.508 30.7975 68.5018C30.8148 68.4956 30.8338 68.4964 30.8504 68.5042C30.8667 68.5123 30.8792 68.5265 30.8851 68.5438C30.8911 68.561 30.89 68.5799 30.8821 68.5963C29.8249 70.871 30.1707 73.7771 30.1738 73.8058C30.175 73.8147 30.1745 73.8238 30.1722 73.8325C30.1699 73.8413 30.1659 73.8495 30.1605 73.8566C30.155 73.8638 30.1481 73.8698 30.1403 73.8743C30.1325 73.8788 30.1238 73.8817 30.1149 73.8828L30.1058 73.8843Z" fill="#B2604D"/>
<path d="M16.8996 56.8197C16.8996 56.8197 17.1911 55.7442 15.945 55.3787C14.6989 55.0132 15.5538 57.9147 12.4575 57.6021C9.36109 57.2894 10.4048 58.614 9.40942 59.5762C8.41405 60.5383 4.04742 58.3256 2.48867 62.1288C0.92991 65.932 3.67586 68.7263 9.08468 68.9257C14.4935 69.1251 12.3578 72.1489 16.9389 70.4648C21.52 68.7807 19.49 61.3781 18.2031 60.2151C16.9162 59.0521 16.8996 56.8197 16.8996 56.8197Z" fill="#44474F"/>
<path d="M21.1373 127.485C21.1373 127.485 21.1796 129.176 22.3063 129.652C23.4331 130.128 26.6987 130.558 25.4782 131.647C24.7774 132.271 21.4771 131.868 20.5452 131.868C19.6133 131.868 18.7327 132.28 18.047 131.647C17.2917 130.951 18.047 127.485 18.047 127.485C18.047 127.485 18.8505 127.911 19.574 127.891C20.6132 127.864 21.1373 127.485 21.1373 127.485Z" fill="#33353B"/>
<path d="M8.19534 127.485C8.19534 127.485 8.23612 129.176 9.3644 129.652C10.4927 130.128 13.7567 130.558 12.5363 131.646C11.8355 132.27 8.53669 131.868 7.60476 131.868C6.67283 131.868 5.79226 132.279 5.10652 131.646C4.35131 130.95 5.10652 127.485 5.10652 127.485C5.10652 127.485 5.91007 127.911 6.63356 127.891C7.67424 127.864 8.19534 127.485 8.19534 127.485Z" fill="#33353B"/>
<path d="M29.5141 81.142C29.5141 81.142 29.4341 88.9327 28.8163 102.681C28.333 113.459 28.4327 123.447 27.5022 128.181C27.1684 129.874 14.8555 129.012 14.9869 127.148L17.902 93.8491L18.4593 83.3079L29.5141 81.142Z" fill="#7D7D7D"/>
<path d="M9.15829 87.3678C9.261 88.2288 14.0596 88.123 19.9352 87.3678C25.8107 86.6126 30.3827 85.3212 30.28 84.4603C30.1773 83.5993 25.4376 83.4936 19.5636 84.2488C13.6896 85.004 9.05558 86.5084 9.15829 87.3678Z" fill="#33353B"/>
<path d="M22.7702 86.1959L11.8348 128.172C11.3091 129.883 0.935557 129.654 1.26181 127.837L9.74585 88.1353C9.7919 87.9143 9.89654 87.7098 10.0488 87.5431C10.2011 87.3765 10.3954 87.2539 10.6113 87.1882C12.963 86.4995 23.0013 84.4982 22.7702 86.1959Z" fill="#7D7D7D"/>
<path d="M11.4106 63.0923C11.4106 63.0923 12.5269 59.2846 18.4719 59.5006C21.7329 59.6199 25.1646 58.6879 26.6931 63.8808C28.1733 68.9044 29.7774 76.7753 30.2804 84.4678C30.2804 84.4678 20.5457 82.3019 9.14199 87.3558C9.14199 87.3512 8.80064 70.0373 11.4106 63.0923Z" fill="#C9B3D3"/>
<path d="M7.17029 62.5319L10.898 65.6389C10.898 65.6389 24.9449 69.2639 27.0021 67.1599C28.4098 65.7114 29.162 63.6451 28.6832 62.5742C28.6832 62.5742 24.8271 58.9855 18.7296 59.277C17.9487 59.329 17.1654 59.3351 16.3839 59.2951C11.41 59.0111 7.17029 62.5319 7.17029 62.5319Z" fill="#C9B3D3"/>
<path d="M16.5251 110.586L16.3197 110.538L19.6592 96.0936C20.2614 94.1886 21.548 92.5743 23.2707 91.5624L23.3749 91.7482C21.6999 92.7319 20.4476 94.3 19.8586 96.151L16.5251 110.586Z" fill="#33353B"/>
<path d="M16.0915 59.3118C16.4139 59.2778 16.7213 59.158 16.9816 58.9649C17.242 58.7718 17.4457 58.5124 17.5717 58.2137L18.3859 56.2939L18.623 55.7381L20.0096 52.4635L19.7694 55.8559L19.6184 57.8935L19.5776 58.4735C19.5605 58.7009 19.6282 58.9266 19.7676 59.107C19.9071 59.2875 20.1084 59.4099 20.3328 59.4507H20.3418C20.588 59.8585 20.9294 60.6878 19.9099 61.017C18.7106 61.4037 16.7727 60.4476 16.0764 59.3118H16.0915Z" fill="#C97E67"/>
<path d="M18.557 56.1565C18.6371 57.2501 19.6143 57.8996 19.6143 57.8996H19.6219L19.7729 55.862C19.4179 55.7261 18.5555 56.1369 18.557 56.1565Z" fill="#33353B"/>
<path d="M20.9867 56.5479C22.6371 56.0043 23.425 53.8937 22.7465 51.8337C22.068 49.7736 20.1801 48.5443 18.5297 49.0879C16.8793 49.6315 16.0914 51.7421 16.7699 53.8021C17.4484 55.8622 19.3363 57.0915 20.9867 56.5479Z" fill="#C97E67"/>
<path d="M13.8822 86.436C13.8822 86.436 25.6061 84.1628 29.4078 85.2277L27.5848 87.9721L20.8075 88.3618L13.8822 86.436Z" fill="#656565"/>
<path d="M17.7445 50.8761C18.0843 51.5089 19.6733 51.4802 20.7744 51.1449C22.1488 50.7326 22.6503 52.5043 22.9116 51.6857C23.1729 50.867 23.0778 48.5304 21.5069 47.6513C19.9361 46.7722 16.3141 47.7616 16.0875 49.0182C15.7537 50.8685 17.4545 50.3338 17.7445 50.8761Z" fill="#44474F"/>
<path d="M16.2743 49.7432C16.2743 49.7432 17.2485 49.6481 17.3512 50.0695C17.4539 50.4909 18.3511 51.0316 17.8466 51.5013C17.3422 51.9711 17.2546 52.175 17.4147 52.6236C17.5249 52.9362 17.2244 53.8229 17.25 54.5207C17.2606 54.8228 17.6246 55.3469 17.6246 55.3469C17.6246 55.3469 15.0916 55.3831 14.5841 52.616C14.2534 50.8156 15.6293 49.7145 16.2743 49.7432Z" fill="#44474F"/>
<path d="M17.0506 54.4166C17.5037 54.622 17.9795 54.4876 18.123 54.1145C18.2664 53.7414 18.0218 53.2762 17.5732 53.0708C17.1246 52.8654 16.6427 53.0013 16.4993 53.3729C16.3558 53.7444 16.602 54.2127 17.0506 54.4166Z" fill="#C97E67"/>
<path d="M13.4903 66.589C13.2033 67.0512 11.5569 66.5165 9.8124 65.3958C8.06786 64.275 6.88822 62.9927 7.1752 62.526C7.46218 62.0592 9.11006 62.6 10.8546 63.7192C12.5991 64.8384 13.7788 66.1283 13.4903 66.589Z" fill="#33353B"/>
<path d="M8.56183 79.8006C8.56183 79.8006 10.5254 77.9715 12.0841 78.1392C13.6429 78.3068 15.5037 79.6994 14.5189 79.8006C13.5341 79.9018 12.2397 79.6934 12.2397 79.6934C12.2397 79.6934 14.9857 80.2855 14.5718 80.873C14.1579 81.4606 11.7745 80.9259 11.7745 80.9259C11.7745 80.9259 14.9872 81.8941 14.4162 82.3245C13.8453 82.755 11.412 82.0028 11.412 82.0028C11.412 82.0028 14.3649 83.0239 13.6912 83.5132C13.0176 84.0026 11.2489 82.6523 10.8411 83.2444C10.4332 83.8365 9.64934 86.1489 7.88818 85.1807L8.56183 79.8006Z" fill="#C97E67"/>
<path d="M12.2392 79.7524C12.2327 79.7539 12.226 79.7539 12.2196 79.7524C12.212 79.7524 11.487 79.4805 11.117 79.7524C11.1107 79.7567 11.1037 79.7597 11.0963 79.7612C11.0889 79.7628 11.0812 79.7629 11.0738 79.7615C11.0663 79.7601 11.0592 79.7572 11.0529 79.7531C11.0466 79.7489 11.0411 79.7435 11.0369 79.7373C11.0284 79.7245 11.025 79.7089 11.0276 79.6938C11.0301 79.6786 11.0383 79.665 11.0505 79.6557C11.4704 79.3536 12.2271 79.6376 12.2588 79.6557C12.2734 79.6611 12.2853 79.6721 12.2918 79.6863C12.2983 79.7004 12.2989 79.7166 12.2936 79.7312C12.287 79.739 12.2786 79.7451 12.2691 79.7488C12.2596 79.7525 12.2493 79.7537 12.2392 79.7524Z" fill="#B2604D"/>
<path d="M10.3939 80.9894C10.3827 80.9892 10.3718 80.9858 10.3624 80.9797C10.3531 80.9735 10.3457 80.9648 10.3411 80.9546C10.335 80.9404 10.3347 80.9243 10.3404 80.9099C10.346 80.8955 10.3571 80.8839 10.3713 80.8776C11.0344 80.5755 11.7639 80.864 11.7941 80.8776C11.8082 80.8836 11.8194 80.8948 11.8256 80.9088C11.8318 80.9228 11.8324 80.9386 11.8273 80.9531C11.8247 80.9603 11.8206 80.9669 11.8153 80.9725C11.81 80.9781 11.8037 80.9826 11.7966 80.9857C11.7896 80.9888 11.782 80.9905 11.7743 80.9906C11.7666 80.9907 11.7589 80.9892 11.7518 80.9863C11.7518 80.9863 11.0374 80.7069 10.4181 80.9863C10.4103 80.9888 10.4021 80.9898 10.3939 80.9894Z" fill="#B2604D"/>
<path d="M11.4104 82.0648C11.4039 82.0662 11.3972 82.0662 11.3907 82.0648C11.3817 82.0648 10.5207 81.7385 10.1522 82.0542C10.1468 82.0596 10.1405 82.0639 10.1335 82.0668C10.1265 82.0697 10.119 82.0712 10.1114 82.0712C10.1038 82.0712 10.0963 82.0697 10.0893 82.0668C10.0823 82.0639 10.076 82.0596 10.0706 82.0542C10.06 82.043 10.0541 82.0281 10.0541 82.0127C10.0541 81.9972 10.06 81.9823 10.0706 81.9711C10.4905 81.6117 11.3847 81.947 11.43 81.9606C11.4441 81.9666 11.4553 81.9777 11.4615 81.9918C11.4677 82.0058 11.4683 82.0216 11.4632 82.0361C11.4579 82.0453 11.4502 82.0528 11.4409 82.0579C11.4315 82.063 11.421 82.0653 11.4104 82.0648Z" fill="#B2604D"/>
<path d="M35.323 62.4459C35.323 62.4459 38.1505 62.6891 39.2576 61.5698C40.3648 60.4506 40.9432 58.1714 40.1125 58.7182C39.2818 59.2649 38.4088 60.2588 38.4088 60.2588C38.4088 60.2588 40.1744 58.043 39.4842 57.8421C38.7939 57.6412 37.279 59.5897 37.279 59.5897C37.279 59.5897 39.1715 56.7833 38.4616 56.8135C37.7517 56.8437 36.3289 58.9855 36.3289 58.9855C36.3289 58.9855 37.9904 56.303 37.1642 56.3589C36.338 56.4148 35.8048 58.5837 35.1191 58.3889C34.4333 58.1941 31.7523 57.528 31.7523 59.4885L35.323 62.4459Z" fill="#C97E67"/>
<path d="M37.5135 61.0518C37.4987 61.0515 37.4845 61.0458 37.4737 61.0358C37.4628 61.0257 37.456 61.0121 37.4546 60.9974C37.4537 60.982 37.4589 60.9669 37.4691 60.9554C37.4793 60.9438 37.4936 60.9366 37.5089 60.9355C37.9621 60.9053 38.3563 60.2316 38.3593 60.2256C38.363 60.2188 38.3681 60.2129 38.3742 60.2081C38.3803 60.2034 38.3873 60.1999 38.3948 60.1979C38.4023 60.196 38.4101 60.1955 38.4177 60.1966C38.4254 60.1978 38.4327 60.2004 38.4393 60.2044C38.4524 60.2126 38.4618 60.2255 38.4655 60.2405C38.4692 60.2554 38.4668 60.2712 38.459 60.2845C38.4424 60.3147 38.03 61.0186 37.5165 61.0518H37.5135Z" fill="#B2604D"/>
<path d="M36.2085 60.5322C36.1958 60.5323 36.1834 60.5283 36.1733 60.5206C36.1632 60.5129 36.1559 60.5022 36.1526 60.4899C36.1488 60.4749 36.1509 60.459 36.1585 60.4455C36.1661 60.4321 36.1786 60.422 36.1934 60.4174C36.8474 60.2392 37.225 59.5701 37.2295 59.564C37.233 59.5572 37.2378 59.5512 37.2437 59.5463C37.2496 59.5414 37.2565 59.5378 37.2639 59.5356C37.2712 59.5335 37.279 59.5329 37.2866 59.5339C37.2942 59.5349 37.3015 59.5375 37.3081 59.5414C37.3214 59.5493 37.3311 59.5621 37.3351 59.5771C37.339 59.5921 37.3369 59.608 37.3292 59.6214C37.3141 59.6501 36.9244 60.3389 36.2236 60.5277L36.2085 60.5322Z" fill="#B2604D"/>
<path d="M35.3332 59.8782H35.3226C35.3142 59.8796 35.3055 59.8791 35.2973 59.8768C35.2891 59.8745 35.2815 59.8704 35.275 59.8649C35.2685 59.8594 35.2633 59.8525 35.2597 59.8448C35.2561 59.837 35.2543 59.8286 35.2543 59.8201C35.2543 59.8115 35.2561 59.8031 35.2597 59.7953C35.2633 59.7876 35.2685 59.7807 35.275 59.7752C35.2815 59.7697 35.2891 59.7656 35.2973 59.7633C35.3055 59.761 35.3142 59.7605 35.3226 59.7619H35.3316C35.8104 59.7619 36.2726 58.9704 36.2772 58.9629C36.285 58.9497 36.2977 58.9401 36.3126 58.9363C36.3275 58.9324 36.3432 58.9347 36.3565 58.9425C36.3697 58.9503 36.3793 58.9631 36.3831 58.9779C36.3869 58.9928 36.3847 59.0086 36.3769 59.0218C36.3587 59.0535 35.8784 59.8782 35.3332 59.8782Z" fill="#B2604D"/>
<path d="M7.88813 85.1808C5.20411 84.1371 1.24227 81.5453 0.487061 77.5185C-0.0944518 74.4191 1.00816 70.8877 3.76317 67.0195C4.89521 65.4368 6.26584 64.0391 7.8262 62.8764C7.8262 62.8764 8.63428 62.6846 10.3939 63.7661C12.5206 65.0711 12.8423 66.2885 12.8423 66.2885C10.7957 68.1961 5.90948 72.1338 6.08469 75.1592C6.1874 76.9294 7.33834 78.5758 9.29282 79.3355L7.88813 85.1808Z" fill="#C97E67"/>
<path d="M32.2878 42.5287C32.2878 42.5287 31.7139 39.9307 32.9615 38.3569C34.2091 36.783 38.2328 34.8421 37.4474 32.6173C36.662 30.3924 33.9463 30.1145 32.8603 31.1975C31.7743 32.2805 32.3815 33.448 31.6519 33.593C30.9224 33.738 26.6494 33.9449 26.9696 31.4618C27.2898 28.9787 30.0146 25.5183 33.6563 25.402C37.2979 25.2857 42.1418 25.3355 43.1931 30.1447C44.2443 34.9539 42.4499 36.8434 39.8701 38.085C37.2903 39.3266 38.4926 42.1465 37.5577 42.5332C36.6227 42.9199 32.3981 43.3639 32.2878 42.5287Z" fill="#B6D1F4"/>
<path d="M31.3664 47.3681C31.6458 45.3773 32.7937 44.1358 34.5533 44.1358C36.313 44.1358 37.7796 45.0541 38.2237 47.3499C38.5605 49.102 36.3145 50.5989 34.5533 50.5989C32.7922 50.5989 31.1186 49.1337 31.3664 47.3681Z" fill="#B6D1F4"/>
</svg>
